<?xml version="1.0" encoding="UTF-8"?>
<svg viewBox="0 0 800 600" xmlns="http://www.w3.org/2000/svg">
  <!-- Background -->
  <rect width="800" height="600" fill="#f5f7fa"/>
  
  <!-- Header -->
  <rect width="800" height="60" fill="#ffffff" stroke="#e0e0e0" stroke-width="1"/>
  <text x="70" y="38" font-family="Arial" font-size="20" font-weight="bold" fill="#1976D2">HealthConnect</text>
  
  <!-- Navigation -->
  <text x="300" y="38" font-family="Arial" font-size="14" fill="#212121">Home</text>
  <text x="360" y="38" font-family="Arial" font-size="14" fill="#757575">Dashboard</text>
  <text x="450" y="38" font-family="Arial" font-size="14" fill="#757575">Appointments</text>
  <text x="560" y="38" font-family="Arial" font-size="14" fill="#757575">Records</text>
  <text x="640" y="38" font-family="Arial" font-size="14" fill="#757575">Messages</text>
  
  <!-- Hero Section -->
  <rect x="0" y="60" width="800" height="180" fill="url(#heroGradient)"/>
  <text x="400" y="130" font-family="Arial" font-size="30" font-weight="bold" fill="#ffffff" text-anchor="middle">Your Health, Simplified</text>
  <text x="400" y="165" font-family="Arial" font-size="16" fill="#ffffff" text-anchor="middle" width="500">Access your medical information, schedule appointments, and manage your health journey all in one place.</text>
  
  <!-- Hero Button -->
  <rect x="330" y="185" width="140" height="40" rx="4" fill="#ffffff"/>
  <text x="400" y="210" font-family="Arial" font-size="14" font-weight="bold" fill="#1976D2" text-anchor="middle">Book Appointment</text>
  
  <!-- Features Section -->
  <text x="400" y="270" font-family="Arial" font-size="24" font-weight="bold" fill="#212121" text-anchor="middle">Our Services</text>
  <line x1="375" y1="285" x2="425" y2="285" stroke="#1976D2" stroke-width="3"/>
  
  <!-- Feature Cards -->
  <rect x="50" y="310" width="220" height="150" rx="8" fill="#ffffff" stroke="#e0e0e0" stroke-width="1"/>
  <circle cx="160" cy="340" r="20" fill="#e3f2fd"/>
  <text x="160" y="345" font-family="Arial" font-size="14" fill="#1976D2" text-anchor="middle">📅</text>
  <text x="160" y="380" font-family="Arial" font-size="16" font-weight="bold" fill="#1976D2" text-anchor="middle">Easy Scheduling</text>
  <text x="160" y="405" font-family="Arial" font-size="12" fill="#757575" text-anchor="middle" width="200">Book appointments with your healthcare providers in just a few clicks.</text>
  
  <rect x="290" y="310" width="220" height="150" rx="8" fill="#ffffff" stroke="#e0e0e0" stroke-width="1"/>
  <circle cx="400" cy="340" r="20" fill="#e3f2fd"/>
  <text x="400" y="345" font-family="Arial" font-size="14" fill="#1976D2" text-anchor="middle">📋</text>
  <text x="400" y="380" font-family="Arial" font-size="16" font-weight="bold" fill="#1976D2" text-anchor="middle">Medical Records</text>
  <text x="400" y="405" font-family="Arial" font-size="12" fill="#757575" text-anchor="middle" width="200">Securely access your complete medical history and test results.</text>
  
  <rect x="530" y="310" width="220" height="150" rx="8" fill="#ffffff" stroke="#e0e0e0" stroke-width="1"/>
  <circle cx="640" cy="340" r="20" fill="#e3f2fd"/>
  <text x="640" y="345" font-family="Arial" font-size="14" fill="#1976D2" text-anchor="middle">📊</text>
  <text x="640" y="380" font-family="Arial" font-size="16" font-weight="bold" fill="#1976D2" text-anchor="middle">Health Tracking</text>
  <text x="640" y="405" font-family="Arial" font-size="12" fill="#757575" text-anchor="middle" width="200">Monitor your vital signs and health metrics through intuitive dashboards.</text>
  
  <!-- Dashboard Section -->
  <rect x="50" y="480" width="700" height="220" rx="8" fill="#ffffff" stroke="#e0e0e0" stroke-width="1"/>
  <text x="80" y="510" font-family="Arial" font-size="18" font-weight="bold" fill="#1976D2">Health Dashboard</text>
  <text x="670" y="510" font-family="Arial" font-size="14" fill="#757575">May 9, 2025</text>
  
  <!-- Dashboard Metrics -->
  <rect x="80" y="530" width="200" height="80" rx="4" fill="#f5f7fa" stroke="#e0e0e0" stroke-width="1"/>
  <rect x="80" y="530" width="4" height="80" fill="#1976D2"/>
  <text x="95" y="550" font-family="Arial" font-size="12" fill="#757575">Blood Pressure</text>
  <text x="95" y="575" font-family="Arial" font-size="18" font-weight="bold" fill="#212121">120/80 mmHg</text>
  <text x="95" y="595" font-family="Arial" font-size="12" fill="#4CAF50">↓ 5% lower than last month</text>
  
  <rect x="300" y="530" width="200" height="80" rx="4" fill="#f5f7fa" stroke="#e0e0e0" stroke-width="1"/>
  <rect x="300" y="530" width="4" height="80" fill="#1976D2"/>
  <text x="315" y="550" font-family="Arial" font-size="12" fill="#757575">Heart Rate</text>
  <text x="315" y="575" font-family="Arial" font-size="18" font-weight="bold" fill="#212121">72 bpm</text>
  <text x="315" y="595" font-family="Arial" font-size="12" fill="#757575">Stable</text>
  
  <rect x="520" y="530" width="200" height="80" rx="4" fill="#f5f7fa" stroke="#e0e0e0" stroke-width="1"/>
  <rect x="520" y="530" width="4" height="80" fill="#1976D2"/>
  <text x="535" y="550" font-family="Arial" font-size="12" fill="#757575">Medication Adherence</text>
  <text x="535" y="575" font-family="Arial" font-size="18" font-weight="bold" fill="#212121">92%</text>
  <text x="535" y="595" font-family="Arial" font-size="12" fill="#4CAF50">↑ 8% improvement</text>
  
  <!-- Blood Pressure Chart -->
  <rect x="80" y="620" width="640" height="60" rx="4" fill="#ffffff"/>
  
  <!-- Chart Lines -->
  <polyline points="80,670 160,650 240,645 320,635 400,630 480,625 560,620 640,615 720,610" 
           fill="none" stroke="#1976D2" stroke-width="2"/>
  <polyline points="80,680 160,675 240,670 320,665 400,665 480,660 560,660 640,655 720,650" 
           fill="none" stroke="#03A9F4" stroke-width="2"/>
           
  <!-- Logo Icon -->
  <circle cx="40" cy="37" r="15" fill="#1976D2"/>
  <path d="M 33 37 L 40 30 L 47 37 M 40 30 L 40 45" stroke="#ffffff" stroke-width="2" fill="none"/>
  
  <!-- Gradients -->
  <defs>
    <linearGradient id="heroGradient" x1="0%" y1="0%" x2="100%" y2="100%">
      <stop offset="0%" style="stop-color:#1976D2"/>
      <stop offset="100%" style="stop-color:#03A9F4"/>
    </linearGradient>
  </defs>
</svg>
